<svg id="Capa_1" enable-background="new 0 0 512 512" height="512" viewBox="0 0 512 512" width="512" xmlns="http://www.w3.org/2000/svg"><g><path d="m248.53 314.479c-1.164-6.147-6.349-10.973-12.497-11.898-6.189-.932-12.498 2.242-15.434 7.769-2.946 5.545-2.091 12.465 2.11 17.132 4.198 4.663 11.07 6.167 16.85 3.779 6.5-2.687 10.406-9.86 8.971-16.782z"/><path d="m188.53 314.479c-1.214-6.41-6.783-11.342-13.23-11.989-6.428-.646-12.724 3.078-15.25 9.021-2.307 5.428-1.202 11.849 2.837 16.163 4.456 4.758 11.66 6.043 17.511 3.214 6.031-2.914 9.495-9.837 8.132-16.409z"/><path d="m123.34 305.81c-5.141-4.057-12.338-4.525-17.84-.87-4.825 3.205-7.419 9.141-6.479 14.857 1.059 6.445 6.294 11.589 12.778 12.477 6.476.887 12.935-2.686 15.658-8.619 2.836-6.181 1.038-13.498-4.117-17.845z"/><path d="m248.75 194.71c-.648-6.255-5.184-11.519-11.28-13.065-6.059-1.536-12.662 1-16.12 6.214-3.464 5.224-3.304 12.211.425 17.257 3.728 5.044 10.412 7.225 16.405 5.414 6.751-2.04 11.284-8.794 10.57-15.82z"/><path d="m188.53 193.25c-1.188-6.146-6.332-10.971-12.497-11.899-6.184-.931-12.504 2.242-15.434 7.769s-2.108 12.492 2.11 17.136c4.215 4.641 11.055 6.177 16.85 3.784 6.499-2.683 10.408-9.876 8.971-16.79z"/><path d="m128.53 193.25c-1.188-6.146-6.335-10.972-12.501-11.899-6.192-.931-12.488 2.247-15.43 7.769-2.952 5.542-2.087 12.471 2.11 17.135 4.195 4.661 11.074 6.162 16.85 3.775 6.499-2.685 10.409-9.858 8.971-16.78z"/><path d="m219.12 77.899c1.149 6.145 6.357 10.981 12.496 11.905 6.189.932 12.498-2.251 15.434-7.774 2.948-5.546 2.089-12.463-2.11-17.132-4.183-4.651-11.087-6.18-16.85-3.779-6.484 2.703-10.424 9.85-8.97 16.78z"/><path d="m159.12 77.899c1.273 6.143 6.267 10.967 12.496 11.905 6.199.933 12.485-2.255 15.434-7.774 2.959-5.537 2.083-12.47-2.11-17.132-4.185-4.653-11.085-6.181-16.85-3.779-6.481 2.701-10.423 9.851-8.97 16.78z"/><path d="m99.12 77.899c1.149 6.147 6.355 10.98 12.496 11.905 6.192.932 12.497-2.249 15.434-7.774 2.948-5.546 2.089-12.463-2.11-17.132-4.185-4.653-11.085-6.181-16.85-3.779-6.484 2.703-10.424 9.85-8.97 16.78z"/><path d="m467 422c-19.555 0-36.228 12.541-42.42 30h-126.16c-4.527-12.764-14.656-22.893-27.42-27.42v-30.915h157.635c24.813 0 45-20.187 45-45v-61.223c0-11.518-4.354-22.035-11.497-30.003 7.143-7.968 11.497-18.485 11.497-30.002v-61.223c0-11.515-4.352-22.029-11.491-29.996 7.139-7.967 11.491-18.481 11.491-29.996v-61.222c0-24.813-20.187-45-45-45h-345.27c-24.813 0-45 20.187-45 45v61.223c0 11.515 4.352 22.029 11.492 29.996-7.139 7.967-11.492 18.481-11.492 29.996v61.223c0 11.518 4.354 22.035 11.497 30.002-7.143 7.968-11.497 18.485-11.497 30.003v61.223c0 24.813 20.187 45 45 45h157.635v30.915c-12.764 4.527-22.893 14.656-27.42 27.42h-126.16c-6.192-17.459-22.865-30-42.42-30-24.813 0-45 20.186-45 45s20.187 45 45 45c19.555 0 36.228-12.541 42.42-30h126.16c6.192 17.459 22.865 30 42.42 30s36.228-12.541 42.42-30h126.16c6.192 17.459 22.865 30 42.42 30 24.814 0 45-20.186 45-45s-20.186-45.001-45-45.001zm-383.538-179.558c-.033 0-.064-.005-.097-.005-8.271 0-15-6.729-15-15v-61.223c0-8.237 6.673-14.939 14.897-14.995.034 0 .068.003.103.003.052 0 .103-.007.155-.008h344.96c.052.001.102.008.155.008.034 0 .068-.003.103-.003 8.224.056 14.897 6.758 14.897 14.995v61.223c0 8.271-6.728 15-15 15-.033 0-.064.005-.097.005zm-15.097-197.442c0-8.271 6.729-15 15-15h345.27c8.272 0 15 6.729 15 15v61.223c0 8.237-6.673 14.939-14.897 14.995-.034 0-.068-.003-.103-.003h-345.27c-.034 0-.068.003-.103.003-8.224-.056-14.897-6.758-14.897-14.995zm0 303.665v-61.223c0-8.272 6.729-15 15-15h345.27c8.272 0 15 6.728 15 15v61.223c0 8.271-6.728 15-15 15h-345.27c-8.271 0-15-6.729-15-15zm-23.365 133.335c-8.271 0-15-6.728-15-15s6.729-15 15-15 15 6.728 15 15-6.729 15-15 15zm211 0c-8.271 0-15-6.728-15-15s6.729-15 15-15c8.272 0 15 6.728 15 15s-6.728 15-15 15zm211 0c-8.272 0-15-6.728-15-15s6.728-15 15-15 15 6.728 15 15-6.728 15-15 15z"/></g></svg>